<?xml version="1.0" encoding="UTF-8" standalone="no"?>
<!-- Created with Inkscape (http://www.inkscape.org/) -->

<svg
   width="210mm"
   height="297mm"
   viewBox="0 0 210 297"
   version="1.1"
   id="svg5"
   inkscape:version="1.1 (c68e22c387, 2021-05-23)"
   sodipodi:docname="lgo.svg"
   xmlns:inkscape="http://www.inkscape.org/namespaces/inkscape"
   xmlns:sodipodi="http://sodipodi.sourceforge.net/DTD/sodipodi-0.dtd"
   xmlns="http://www.w3.org/2000/svg"
   xmlns:svg="http://www.w3.org/2000/svg">
  <sodipodi:namedview
     id="namedview7"
     pagecolor="#ffffff"
     bordercolor="#666666"
     borderopacity="1.0"
     inkscape:pageshadow="2"
     inkscape:pageopacity="0.0"
     inkscape:pagecheckerboard="0"
     inkscape:document-units="mm"
     showgrid="false"
     inkscape:zoom="2.7942528"
     inkscape:cx="166.23406"
     inkscape:cy="595.68697"
     inkscape:window-width="1920"
     inkscape:window-height="991"
     inkscape:window-x="-9"
     inkscape:window-y="-9"
     inkscape:window-maximized="1"
     inkscape:current-layer="layer1"
     inkscape:snap-global="false" />
  <defs
     id="defs2" />
  <g
     inkscape:label="Layer 1"
     inkscape:groupmode="layer"
     id="layer1">
    <rect
       style="fill:#210203;stroke-width:0.201617;stroke-opacity:0.5"
       id="rect852"
       width="101.00768"
       height="36.813038"
       x="1.5794886"
       y="130.09348" />
    <path
       style="fill:#748ea7;fill-opacity:1;stroke:none;stroke-width:0.509628;stroke-linecap:butt;stroke-linejoin:miter;stroke-miterlimit:4;stroke-dasharray:none;stroke-opacity:0.5"
       d="m 11.58779,151.03338 c 8.03522,-7.76731 19.98256,-2.50142 28.92649,0.60602 10.16349,2.82914 17.94248,-4.44806 26.42516,-7.90713 8.32312,-2.95522 19.10731,-3.08077 25.63941,3.35104 -10.40715,-6.16409 -23.66978,-1.51644 -32.57588,4.89029 -9.68501,5.75667 -22.24357,3.00548 -32.13941,-1.6768 -5.26668,-1.54375 -11.3219,-1.88704 -16.27577,0.73658 z"
       id="path4351"
       sodipodi:nodetypes="sssscss"
       inkscape:export-filename="C:\Users\leviw\Documents\school\wdd130\wwr\img\logolight.png"
       inkscape:export-xdpi="188.17"
       inkscape:export-ydpi="188.17" />
    <path
       style="fill:#98acbe;fill-opacity:1;stroke:none;stroke-width:0.509628;stroke-linecap:butt;stroke-linejoin:miter;stroke-miterlimit:4;stroke-dasharray:none;stroke-opacity:0.5"
       d="m 11.58779,151.03338 c 8.03522,-7.76731 19.98256,-2.50142 28.92649,0.60602 10.16349,2.82914 17.94248,-4.44806 26.42516,-7.90713 8.32312,-2.95522 19.10731,-3.08077 25.63941,3.35104 -10.40715,-6.16409 -23.66978,-4.16227 -32.57588,2.24446 -9.68501,5.75667 -22.24357,3.00548 -32.13941,-1.6768 -5.26668,-1.54375 -11.3219,0.75879 -16.27577,3.38241 z"
       id="path4353"
       sodipodi:nodetypes="sssscss"
       inkscape:export-filename="C:\Users\leviw\Documents\school\wdd130\wwr\img\logolight.png"
       inkscape:export-xdpi="188.17"
       inkscape:export-ydpi="188.17" />
    <path
       style="fill:#5e7a94;fill-opacity:1;stroke:none;stroke-width:0.509628;stroke-linecap:butt;stroke-linejoin:miter;stroke-miterlimit:4;stroke-dasharray:none;stroke-opacity:0.5"
       d="m 11.58779,151.03338 c 8.03522,-7.76731 19.98256,0.14441 28.92649,3.25185 10.16349,2.82914 17.94248,-4.44806 26.42516,-7.90713 8.32312,-2.95522 19.10731,-5.7266 25.63941,0.70521 -10.40715,-6.16409 -23.66978,-1.51644 -32.57588,4.89029 -9.68501,5.75667 -22.24357,3.00548 -32.13941,-1.6768 -5.26668,-1.54375 -11.3219,-1.88704 -16.27577,0.73658 z"
       id="path4355"
       sodipodi:nodetypes="sssscss"
       inkscape:export-filename="C:\Users\leviw\Documents\school\wdd130\wwr\img\logolight.png"
       inkscape:export-xdpi="188.17"
       inkscape:export-ydpi="188.17" />
    <text
       xml:space="preserve"
       style="font-style:normal;font-weight:normal;font-size:10.5833px;line-height:1.25;font-family:sans-serif;fill:#ffffff;fill-opacity:1;stroke:none;stroke-width:0.264583"
       x="16.14357"
       y="150.7861"
       id="text7579"
       inkscape:export-filename="C:\Users\leviw\Documents\school\wdd130\wwr\img\logolight.png"
       inkscape:export-xdpi="188.17"
       inkscape:export-ydpi="188.17"><tspan
         sodipodi:role="line"
         id="tspan7577"
         style="font-style:normal;font-variant:normal;font-weight:normal;font-stretch:normal;font-size:10.5833px;font-family:Elephant;-inkscape-font-specification:'Elephant, Normal';font-variant-ligatures:normal;font-variant-caps:normal;font-variant-numeric:normal;font-variant-east-asian:normal;fill:#ffffff;fill-opacity:1;stroke-width:0.264583"
         x="16.14357"
         y="150.7861">UPSTREAM</tspan></text>
    <g
       id="g5545"
       inkscape:export-filename="C:\Users\leviw\Documents\school\wdd130\wwr\img\logodark.png"
       inkscape:export-xdpi="188.17"
       inkscape:export-ydpi="188.17">
      <path
         style="fill:#7e96ad;fill-opacity:1;stroke:none;stroke-width:0.509628;stroke-linecap:butt;stroke-linejoin:miter;stroke-miterlimit:4;stroke-dasharray:none;stroke-opacity:0.5"
         d="m 117.42114,151.03338 c 8.03522,-7.76731 19.98256,-2.50142 28.92649,0.60602 10.16349,2.82914 17.94248,-4.44806 26.42516,-7.90713 8.32312,-2.95522 19.10731,-3.08077 25.63941,3.35104 -10.40715,-6.16409 -23.66978,-1.51644 -32.57588,4.89029 -9.68501,5.75667 -22.24357,3.00548 -32.13941,-1.6768 -5.26668,-1.54375 -11.3219,-1.88704 -16.27577,0.73658 z"
         id="path5351"
         sodipodi:nodetypes="sssscss" />
      <path
         style="fill:#b1c0ce;fill-opacity:1;stroke:none;stroke-width:0.509628;stroke-linecap:butt;stroke-linejoin:miter;stroke-miterlimit:4;stroke-dasharray:none;stroke-opacity:0.5"
         d="m 117.42114,151.03338 c 8.03522,-7.76731 19.98256,-2.50142 28.92649,0.60602 10.16349,2.82914 17.94248,-4.44806 26.42516,-7.90713 8.32312,-2.95522 19.10731,-3.08077 25.63941,3.35104 -10.40715,-6.16409 -23.66978,-4.16227 -32.57588,2.24446 -9.68501,5.75667 -22.24357,3.00548 -32.13941,-1.6768 -5.26668,-1.54375 -11.3219,0.75879 -16.27577,3.38241 z"
         id="path2557"
         sodipodi:nodetypes="sssscss" />
      <path
         style="fill:#5d7a92;fill-opacity:1;stroke:none;stroke-width:0.509628;stroke-linecap:butt;stroke-linejoin:miter;stroke-miterlimit:4;stroke-dasharray:none;stroke-opacity:0.5"
         d="m 117.42114,151.03338 c 8.03522,-7.76731 19.98256,0.14441 28.92649,3.25185 10.16349,2.82914 17.94248,-4.44806 26.42516,-7.90713 8.32312,-2.95522 19.10731,-5.7266 25.63941,0.70521 -10.40715,-6.16409 -23.66978,-1.51644 -32.57588,4.89029 -9.68501,5.75667 -22.24357,3.00548 -32.13941,-1.6768 -5.26668,-1.54375 -11.3219,-1.88704 -16.27577,0.73658 z"
         id="path2846"
         sodipodi:nodetypes="sssscss" />
      <text
         xml:space="preserve"
         style="font-style:normal;font-weight:normal;font-size:10.5833px;line-height:1.25;font-family:sans-serif;fill:#000000;fill-opacity:1;stroke:none;stroke-width:0.264583"
         x="121.97691"
         y="150.7861"
         id="text627"><tspan
           sodipodi:role="line"
           id="tspan625"
           style="font-style:normal;font-variant:normal;font-weight:normal;font-stretch:normal;font-size:10.5833px;font-family:Elephant;-inkscape-font-specification:'Elephant, Normal';font-variant-ligatures:normal;font-variant-caps:normal;font-variant-numeric:normal;font-variant-east-asian:normal;fill:#000000;fill-opacity:1;stroke-width:0.264583"
           x="121.97691"
           y="150.7861">UPSTREAM</tspan></text>
    </g>
  </g>
</svg>
